<?xml version="1.0" encoding="utf-8"?>
<!-- Svg Vector Icons : http://www.onlinewebfonts.com/icon -->
<!DOCTYPE svg PUBLIC "-//W3C//DTD SVG 1.1//EN" "http://www.w3.org/Graphics/SVG/1.1/DTD/svg11.dtd">
<svg version="1.1" xmlns="http://www.w3.org/2000/svg" xmlns:xlink="http://www.w3.org/1999/xlink" x="0px" y="0px" viewBox="0 0 1000 1000" enable-background="new 0 0 1000 1000" xml:space="preserve">
<metadata> Svg Vector Icons : http://www.onlinewebfonts.com/icon </metadata>
<g><path d="M500,53.5c246.2,0,446.4,200.3,446.4,446.5c0,246.2-200.2,446.4-446.4,446.4C253.8,946.4,53.5,746.2,53.5,500C53.5,253.8,253.8,53.5,500,53.5 M500,10C229.4,10,10,229.4,10,500s219.4,490,490,490s490-219.4,490-490S770.6,10,500,10L500,10z"/><path d="M779,720.2c-9.1,0-17.6-5.8-20.7-14.9c-18.9-56.9-55.9-105.8-105.3-139.5c-38.8,43.4-94.6,68.8-153,68.8s-114.2-25.4-153-68.8c-49.4,33.7-86.5,82.6-105.4,139.5c-3.8,11.4-16.1,17.5-27.5,13.7c-11.4-3.8-17.6-16-13.8-27.5c24.1-72.8,74-134.4,140.5-173.3c9.6-5.6,22-3.1,28.5,6C399.7,566,448.6,591,500,591s100.2-24.9,130.6-66.7c6.6-9,19-11.6,28.6-6c66.4,38.9,116.3,100.4,140.5,173.3c3.8,11.5-2.4,23.8-13.8,27.5C783.6,719.8,781.3,720.2,779,720.2z"/><path d="M500,634.5c-113.2,0-205.2-92.1-205.2-205.3c0-113.2,92-205.3,205.2-205.3c113.2,0,205.2,92.1,205.2,205.3C705.2,542.5,613.2,634.5,500,634.5z M500,267.6c-89.1,0-161.7,72.5-161.7,161.7c0,89.1,72.6,161.7,161.7,161.7c89.2,0,161.7-72.5,161.7-161.7S589.2,267.6,500,267.6z"/></g>
</svg>